<svg width="230" height="143" viewBox="0 0 260 183" fill="none" xmlns="http://www.w3.org/2000/svg">
<circle cx="240.5" cy="153.5" r="12.5" fill="#F1FDFF"/>
<circle cx="252.5" cy="175.5" r="7.5" fill="#F1FDFF"/>
<path d="M0 37.0286C0 20.8443 12.8374 7.57737 29.0129 7.04484L212.013 1.02015C228.959 0.46225 243 14.0485 243 31.0039V110.996C243 127.952 228.959 141.538 212.013 140.98L29.0129 134.955C12.8373 134.423 0 121.156 0 104.971V37.0286Z" fill="#F1FDFF"/>
<path d="M0 37.0286C0 20.8443 12.8374 7.57737 29.0129 7.04484L212.013 1.02015C228.959 0.46225 243 14.0485 243 31.0039V110.996C243 127.952 228.959 141.538 212.013 140.98L29.0129 134.955C12.8373 134.423 0 121.156 0 104.971V37.0286Z" fill="url(#paint0_linear_98_5146)"/>
<path d="M0 37.0286C0 20.8443 12.8374 7.57737 29.0129 7.04484L212.013 1.02015C228.959 0.46225 243 14.0485 243 31.0039V110.996C243 127.952 228.959 141.538 212.013 140.98L29.0129 134.955C12.8373 134.423 0 121.156 0 104.971V37.0286Z" fill="url(#paint1_linear_98_5146)"/>
<path d="M64.7254 59H69.2134L61.4614 42.2H57.8134L50.0614 59H54.5494L55.6294 56.672H63.6454L64.7254 59ZM57.5254 52.592L59.6374 48.008L61.7494 52.592H57.5254ZM81.5275 47H77.6635V52.832C77.6635 54.632 76.7755 55.568 75.5755 55.568C74.6635 55.568 73.9915 55.016 73.9915 53.432V47H70.0555V54.68C70.0555 57.632 71.5675 59.288 74.0395 59.288C75.8395 59.288 77.0635 58.28 77.8075 57.128V59H81.5275V47ZM96.4077 42.2H92.5677V48.704C91.7517 47.456 90.2877 46.688 88.6317 46.688C85.5597 46.688 83.4477 49.256 83.4477 53C83.4477 56.768 85.5837 59.312 88.7037 59.312C90.3117 59.312 91.6797 58.616 92.5677 57.368V59H96.4077V42.2ZM89.9997 50.48C91.5117 50.48 92.6157 51.536 92.6157 53C92.6157 54.464 91.5117 55.52 89.9997 55.52C88.4877 55.52 87.3837 54.464 87.3837 53C87.3837 51.536 88.4877 50.48 89.9997 50.48ZM100.973 45.824C102.269 45.824 103.229 44.864 103.229 43.568C103.229 42.272 102.269 41.312 100.973 41.312C99.6773 41.312 98.7173 42.272 98.7173 43.568C98.7173 44.864 99.6773 45.824 100.973 45.824ZM102.893 47H99.0533V59H102.893V47ZM104.94 53C104.94 56.84 107.748 59.288 111.492 59.288C115.236 59.288 118.044 56.84 118.044 53C118.044 49.16 115.236 46.712 111.492 46.712C107.748 46.712 104.94 49.16 104.94 53ZM114.108 53C114.108 54.584 112.884 55.52 111.492 55.52C110.1 55.52 108.876 54.584 108.876 53C108.876 51.416 110.1 50.48 111.492 50.48C112.884 50.48 114.108 51.416 114.108 53ZM137.579 48.872C136.907 47.384 135.611 46.712 134.003 46.712C132.059 46.712 131.003 47.672 130.307 48.8V47H126.563V59H130.403V53.168C130.403 51.512 131.027 50.432 132.467 50.432C133.643 50.432 134.267 51.176 134.267 52.688V59H138.107V53.168C138.107 51.512 138.731 50.432 140.171 50.432C141.347 50.432 141.971 51.176 141.971 52.688V59H145.811V51.464C145.811 48.416 143.843 46.712 141.371 46.712C139.547 46.712 138.179 47.648 137.579 48.872ZM147.833 49.28L150.521 51.392C150.977 50.648 152.057 50.216 153.449 50.216C154.577 50.216 155.201 50.48 155.201 50.96V51.056C155.201 51.272 155.033 51.392 154.673 51.44L151.433 51.728C149.129 51.92 147.617 53.432 147.617 55.52C147.617 57.704 149.297 59.264 151.649 59.264C153.185 59.264 154.457 58.592 155.201 57.44V59.024H159.041V51.872C159.041 48.392 157.265 46.736 153.521 46.736C150.761 46.736 148.721 47.648 147.833 49.28ZM155.201 53.936V54.152C155.201 55.376 154.265 56.24 152.945 56.24C152.081 56.24 151.577 55.88 151.577 55.232C151.577 54.68 152.009 54.32 152.777 54.224L155.201 53.936ZM160.955 52.928C160.955 56.6 163.139 59 166.451 59C168.011 59 169.307 58.376 170.123 57.224V57.848C170.123 59.576 168.971 60.44 166.667 60.44C165.515 60.44 164.411 60.128 163.259 59.456L161.723 62.888C163.283 63.728 164.963 64.112 166.955 64.112C171.467 64.112 173.915 62 173.915 58.112V47H170.075V48.704C169.331 47.48 167.891 46.712 166.331 46.712C163.163 46.712 160.955 49.256 160.955 52.928ZM170.123 53C170.123 54.464 169.019 55.52 167.507 55.52C165.995 55.52 164.891 54.464 164.891 53C164.891 51.536 165.995 50.48 167.507 50.48C169.019 50.48 170.123 51.536 170.123 53ZM178.598 45.824C179.894 45.824 180.854 44.864 180.854 43.568C180.854 42.272 179.894 41.312 178.598 41.312C177.302 41.312 176.342 42.272 176.342 43.568C176.342 44.864 177.302 45.824 178.598 45.824ZM180.518 47H176.678V59H180.518V47ZM182.565 53C182.565 56.72 185.229 59.288 189.045 59.288C190.893 59.288 192.573 58.664 193.701 57.536L191.637 54.416C190.965 55.136 190.101 55.52 189.117 55.52C187.605 55.52 186.501 54.464 186.501 53C186.501 51.536 187.605 50.48 189.117 50.48C190.101 50.48 190.965 50.864 191.637 51.584L193.701 48.464C192.573 47.336 190.893 46.712 189.045 46.712C185.229 46.712 182.565 49.28 182.565 53ZM50.3291 72.2H46.4891V89H50.3291V83.168C50.3291 81.44 51.0971 80.432 52.4171 80.432C53.6411 80.432 54.2411 81.152 54.2411 82.64V89H58.1291V81.32C58.1291 78.344 56.6891 76.712 54.0731 76.712C52.4651 76.712 51.1931 77.408 50.3291 78.8V72.2ZM60.1413 79.28L62.8293 81.392C63.2853 80.648 64.3653 80.216 65.7573 80.216C66.8853 80.216 67.5093 80.48 67.5093 80.96V81.056C67.5093 81.272 67.3413 81.392 66.9813 81.44L63.7413 81.728C61.4373 81.92 59.9253 83.432 59.9253 85.52C59.9253 87.704 61.6053 89.264 63.9573 89.264C65.4933 89.264 66.7653 88.592 67.5093 87.44V89.024H71.3493V81.872C71.3493 78.392 69.5733 76.736 65.8293 76.736C63.0693 76.736 61.0293 77.648 60.1413 79.28ZM67.5093 83.936V84.152C67.5093 85.376 66.5733 86.24 65.2533 86.24C64.3893 86.24 63.8853 85.88 63.8853 85.232C63.8853 84.68 64.3173 84.32 65.0853 84.224L67.5093 83.936ZM73.8641 93.8H77.7041V87.296C78.5201 88.544 79.9841 89.312 81.6401 89.312C84.7121 89.312 86.8241 86.744 86.8241 83C86.8241 79.232 84.6881 76.688 81.5681 76.688C79.9601 76.688 78.5921 77.384 77.7041 78.632V77H73.8641V93.8ZM80.2721 85.52C78.7601 85.52 77.6561 84.464 77.6561 83C77.6561 81.536 78.7601 80.48 80.2721 80.48C81.7841 80.48 82.8881 81.536 82.8881 83C82.8881 84.464 81.7841 85.52 80.2721 85.52ZM88.6297 93.8H92.4697V87.296C93.2857 88.544 94.7497 89.312 96.4057 89.312C99.4777 89.312 101.59 86.744 101.59 83C101.59 79.232 99.4537 76.688 96.3337 76.688C94.7257 76.688 93.3577 77.384 92.4697 78.632V77H88.6297V93.8ZM95.0377 85.52C93.5257 85.52 92.4217 84.464 92.4217 83C92.4217 81.536 93.5257 80.48 95.0377 80.48C96.5497 80.48 97.6537 81.536 97.6537 83C97.6537 84.464 96.5497 85.52 95.0377 85.52ZM102.795 82.928C102.795 86.384 105.099 89.288 109.419 89.288C111.771 89.288 113.187 88.712 114.195 88.04L112.707 84.824C111.867 85.376 110.787 85.688 109.539 85.688C108.555 85.688 107.307 85.328 106.755 84.224L106.731 84.176H115.107V83.144C115.107 79.088 112.683 76.712 109.083 76.712C105.219 76.712 102.795 79.376 102.795 82.928ZM110.931 81.488H106.635C106.971 80.336 107.835 79.88 108.891 79.88C110.067 79.88 110.811 80.6 110.931 81.488ZM116.919 89H120.759V83.168C120.759 81.44 121.527 80.432 122.847 80.432C124.071 80.432 124.671 81.152 124.671 82.64V89H128.559V81.32C128.559 78.344 127.119 76.712 124.503 76.712C122.967 76.712 121.599 77.456 120.663 78.8V77H116.919V89ZM130.883 80.696C130.883 83.288 132.899 84.224 134.555 84.584C136.811 85.064 137.195 85.136 137.195 85.448C137.195 85.856 136.619 85.904 136.139 85.904C134.339 85.904 133.091 85.256 132.251 84.584L130.331 87.8C131.435 88.76 133.331 89.288 135.659 89.288C139.187 89.288 141.203 88.088 141.203 85.28C141.203 82.904 139.787 81.872 137.651 81.416C135.203 80.888 134.891 80.84 134.891 80.552C134.891 80.288 135.155 80.12 135.923 80.12C136.979 80.12 138.467 80.456 139.259 81.032L141.083 77.984C139.931 77.24 138.371 76.712 136.283 76.712C132.923 76.712 130.883 78.08 130.883 80.696ZM153.337 72.2H149.497V89H153.337V83.168C153.337 81.44 154.105 80.432 155.425 80.432C156.649 80.432 157.249 81.152 157.249 82.64V89H161.137V81.32C161.137 78.344 159.697 76.712 157.081 76.712C155.473 76.712 154.201 77.408 153.337 78.8V72.2ZM163.053 82.928C163.053 86.384 165.357 89.288 169.677 89.288C172.029 89.288 173.445 88.712 174.453 88.04L172.965 84.824C172.125 85.376 171.045 85.688 169.797 85.688C168.813 85.688 167.565 85.328 167.013 84.224L166.989 84.176H175.365V83.144C175.365 79.088 172.941 76.712 169.341 76.712C165.477 76.712 163.053 79.376 163.053 82.928ZM171.189 81.488H166.893C167.229 80.336 168.093 79.88 169.149 79.88C170.325 79.88 171.069 80.6 171.189 81.488ZM180.873 79.088V77H177.177V89H181.017V83.696C181.017 81.608 182.025 80.816 183.753 80.816C184.281 80.816 184.881 80.888 185.313 81.056V76.904C184.953 76.784 184.617 76.712 184.161 76.712C182.481 76.712 181.473 77.648 180.873 79.088ZM185.788 82.928C185.788 86.384 188.092 89.288 192.412 89.288C194.764 89.288 196.18 88.712 197.188 88.04L195.7 84.824C194.86 85.376 193.78 85.688 192.532 85.688C191.548 85.688 190.3 85.328 189.748 84.224L189.724 84.176H198.1V83.144C198.1 79.088 195.676 76.712 192.076 76.712C188.212 76.712 185.788 79.376 185.788 82.928ZM193.924 81.488H189.628C189.964 80.336 190.828 79.88 191.884 79.88C193.06 79.88 193.804 80.6 193.924 81.488Z" fill="#16445E"/>
<defs>
<linearGradient id="paint0_linear_98_5146" x1="121.5" y1="0" x2="118" y2="57" gradientUnits="userSpaceOnUse">
<stop stop-color="white"/>
<stop offset="1" stop-color="white" stop-opacity="0"/>
</linearGradient>
<linearGradient id="paint1_linear_98_5146" x1="111.5" y1="135" x2="114.5" y2="90.5" gradientUnits="userSpaceOnUse">
<stop stop-color="#E4FBFF"/>
<stop offset="1" stop-color="#E4FBFF" stop-opacity="0"/>
</linearGradient>
</defs>
</svg>
