<svg width="230" height="143" viewBox="0 0 260 183" fill="none" xmlns="http://www.w3.org/2000/svg">
<circle cx="240.5" cy="153.5" r="12.5" fill="#F1FDFF"/>
<circle cx="252.5" cy="175.5" r="7.5" fill="#F1FDFF"/>
<path d="M0 37.0286C0 20.8443 12.8374 7.57737 29.0129 7.04484L212.013 1.02015C228.959 0.46225 243 14.0485 243 31.0039V110.996C243 127.952 228.959 141.538 212.013 140.98L29.0129 134.955C12.8373 134.423 0 121.156 0 104.971V37.0286Z" fill="#F1FDFF"/>
<path d="M0 37.0286C0 20.8443 12.8374 7.57737 29.0129 7.04484L212.013 1.02015C228.959 0.46225 243 14.0485 243 31.0039V110.996C243 127.952 228.959 141.538 212.013 140.98L29.0129 134.955C12.8373 134.423 0 121.156 0 104.971V37.0286Z" fill="url(#paint0_linear_3622_337)"/>
<path d="M0 37.0286C0 20.8443 12.8374 7.57737 29.0129 7.04484L212.013 1.02015C228.959 0.46225 243 14.0485 243 31.0039V110.996C243 127.952 228.959 141.538 212.013 140.98L29.0129 134.955C12.8373 134.423 0 121.156 0 104.971V37.0286Z" fill="url(#paint1_linear_3622_337)"/>
<path d="M50.4878 64H54.5678L58.8638 53.08L63.1598 64H67.2398L73.6478 47.2H69.2798L65.1518 58.096L60.9038 47.2H56.8238L52.5758 58.096L48.4478 47.2H44.0798L50.4878 64ZM73.057 57.928C73.057 61.384 75.361 64.288 79.681 64.288C82.033 64.288 83.449 63.712 84.457 63.04L82.969 59.824C82.129 60.376 81.049 60.688 79.801 60.688C78.817 60.688 77.569 60.328 77.017 59.224L76.993 59.176H85.369V58.144C85.369 54.088 82.945 51.712 79.345 51.712C75.481 51.712 73.057 54.376 73.057 57.928ZM81.193 56.488H76.897C77.233 55.336 78.097 54.88 79.153 54.88C80.329 54.88 81.073 55.6 81.193 56.488ZM91.0205 47.2H87.1805V64H91.0205V47.2ZM92.8148 58C92.8148 61.72 95.4788 64.288 99.2948 64.288C101.143 64.288 102.823 63.664 103.951 62.536L101.887 59.416C101.215 60.136 100.351 60.52 99.3668 60.52C97.8548 60.52 96.7508 59.464 96.7508 58C96.7508 56.536 97.8548 55.48 99.3668 55.48C100.351 55.48 101.215 55.864 101.887 56.584L103.951 53.464C102.823 52.336 101.143 51.712 99.2948 51.712C95.4788 51.712 92.8148 54.28 92.8148 58ZM104.44 58C104.44 61.84 107.248 64.288 110.992 64.288C114.736 64.288 117.544 61.84 117.544 58C117.544 54.16 114.736 51.712 110.992 51.712C107.248 51.712 104.44 54.16 104.44 58ZM113.608 58C113.608 59.584 112.384 60.52 110.992 60.52C109.6 60.52 108.376 59.584 108.376 58C108.376 56.416 109.6 55.48 110.992 55.48C112.384 55.48 113.608 56.416 113.608 58ZM130.353 53.872C129.681 52.384 128.385 51.712 126.777 51.712C124.833 51.712 123.777 52.672 123.081 53.8V52H119.337V64H123.177V58.168C123.177 56.512 123.801 55.432 125.241 55.432C126.417 55.432 127.041 56.176 127.041 57.688V64H130.881V58.168C130.881 56.512 131.505 55.432 132.945 55.432C134.121 55.432 134.745 56.176 134.745 57.688V64H138.585V56.464C138.585 53.416 136.617 51.712 134.145 51.712C132.321 51.712 130.953 52.648 130.353 53.872ZM140.51 57.928C140.51 61.384 142.814 64.288 147.134 64.288C149.486 64.288 150.902 63.712 151.91 63.04L150.422 59.824C149.582 60.376 148.502 60.688 147.254 60.688C146.27 60.688 145.022 60.328 144.47 59.224L144.446 59.176H152.822V58.144C152.822 54.088 150.398 51.712 146.798 51.712C142.934 51.712 140.51 54.376 140.51 57.928ZM148.646 56.488H144.35C144.686 55.336 145.55 54.88 146.606 54.88C147.782 54.88 148.526 55.6 148.646 56.488ZM156.798 58.984L152.238 67.24L155.19 68.8L159.75 60.592L156.798 58.984ZM180.368 53.872C179.696 52.384 178.4 51.712 176.792 51.712C174.848 51.712 173.792 52.672 173.096 53.8V52H169.352V64H173.192V58.168C173.192 56.512 173.816 55.432 175.256 55.432C176.432 55.432 177.056 56.176 177.056 57.688V64H180.896V58.168C180.896 56.512 181.52 55.432 182.96 55.432C184.136 55.432 184.76 56.176 184.76 57.688V64H188.6V56.464C188.6 53.416 186.632 51.712 184.16 51.712C182.336 51.712 180.968 52.648 180.368 53.872ZM190.93 68.8H194.962L202.402 52H198.346L195.826 57.712L193.234 52H188.842L193.834 62.2L190.93 68.8ZM58.3406 94H62.1806V88.168C62.1806 86.44 62.9486 85.432 64.2686 85.432C65.4926 85.432 66.0926 86.152 66.0926 87.64V94H69.9806V86.32C69.9806 83.344 68.5406 81.712 65.9246 81.712C64.3886 81.712 63.0206 82.456 62.0846 83.8V82H58.3406V94ZM71.8969 87.928C71.8969 91.384 74.2009 94.288 78.5209 94.288C80.8729 94.288 82.2889 93.712 83.2969 93.04L81.8089 89.824C80.9689 90.376 79.8889 90.688 78.6409 90.688C77.6569 90.688 76.4089 90.328 75.8569 89.224L75.8329 89.176H84.2089V88.144C84.2089 84.088 81.7849 81.712 78.1849 81.712C74.3209 81.712 71.8969 84.376 71.8969 87.928ZM80.0329 86.488H75.7369C76.0729 85.336 76.9369 84.88 77.9929 84.88C79.1689 84.88 79.9129 85.6 80.0329 86.488ZM88.9356 94H91.8396L94.4556 87.76L97.0716 94H99.9756L104.8 82H100.696L98.4636 88.12L96.0636 82H92.8476L90.4476 88.12L88.2156 82H84.1116L88.9356 94ZM118.025 85.168H121.385V82H118.025V81.976C118.025 81.088 118.361 80.488 119.537 80.488C120.113 80.488 120.641 80.56 121.481 80.704V77.152C120.593 77.032 119.849 76.912 118.817 76.912C116.249 76.912 114.185 78.4 114.185 81.448V82H111.641V85.168H114.185V94H118.025V85.168ZM126.748 84.088V82H123.052V94H126.892V88.696C126.892 86.608 127.9 85.816 129.628 85.816C130.156 85.816 130.756 85.888 131.188 86.056V81.904C130.828 81.784 130.492 81.712 130.036 81.712C128.356 81.712 127.348 82.648 126.748 84.088ZM134.657 80.824C135.953 80.824 136.913 79.864 136.913 78.568C136.913 77.272 135.953 76.312 134.657 76.312C133.361 76.312 132.401 77.272 132.401 78.568C132.401 79.864 133.361 80.824 134.657 80.824ZM136.577 82H132.737V94H136.577V82ZM138.623 87.928C138.623 91.384 140.927 94.288 145.247 94.288C147.599 94.288 149.015 93.712 150.023 93.04L148.535 89.824C147.695 90.376 146.615 90.688 145.367 90.688C144.383 90.688 143.135 90.328 142.583 89.224L142.559 89.176H150.935V88.144C150.935 84.088 148.511 81.712 144.911 81.712C141.047 81.712 138.623 84.376 138.623 87.928ZM146.759 86.488H142.463C142.799 85.336 143.663 84.88 144.719 84.88C145.895 84.88 146.639 85.6 146.759 86.488ZM152.747 94H156.587V88.168C156.587 86.44 157.355 85.432 158.675 85.432C159.899 85.432 160.499 86.152 160.499 87.64V94H164.387V86.32C164.387 83.344 162.947 81.712 160.331 81.712C158.795 81.712 157.427 82.456 156.491 83.8V82H152.747V94ZM179.263 77.2H175.423V83.704C174.607 82.456 173.143 81.688 171.487 81.688C168.415 81.688 166.303 84.256 166.303 88C166.303 91.768 168.439 94.312 171.559 94.312C173.167 94.312 174.535 93.616 175.423 92.368V94H179.263V77.2ZM172.855 85.48C174.367 85.48 175.471 86.536 175.471 88C175.471 89.464 174.367 90.52 172.855 90.52C171.343 90.52 170.239 89.464 170.239 88C170.239 86.536 171.343 85.48 172.855 85.48ZM182.629 87.88H186.709V77.2H182.629V87.88ZM184.669 88.96C183.229 88.96 182.149 90.04 182.149 91.48C182.149 92.92 183.229 94 184.669 94C186.109 94 187.189 92.92 187.189 91.48C187.189 90.04 186.109 88.96 184.669 88.96Z" fill="#16445E"/>
<defs>
<linearGradient id="paint0_linear_3622_337" x1="121.5" y1="0" x2="118" y2="57" gradientUnits="userSpaceOnUse">
<stop stop-color="white"/>
<stop offset="1" stop-color="white" stop-opacity="0"/>
</linearGradient>
<linearGradient id="paint1_linear_3622_337" x1="111.5" y1="135" x2="114.5" y2="90.5" gradientUnits="userSpaceOnUse">
<stop stop-color="#E4FBFF"/>
<stop offset="1" stop-color="#E4FBFF" stop-opacity="0"/>
</linearGradient>
</defs>
</svg>
