<svg width="230" height="143" viewBox="0 0 260 183" fill="none" xmlns="http://www.w3.org/2000/svg">
<circle cx="240.5" cy="153.5" r="12.5" fill="#F1FDFF"/>
<circle cx="252.5" cy="175.5" r="7.5" fill="#F1FDFF"/>
<path d="M0 37.0286C0 20.8443 12.8374 7.57737 29.0129 7.04484L212.013 1.02015C228.959 0.46225 243 14.0485 243 31.0039V110.996C243 127.952 228.959 141.538 212.013 140.98L29.0129 134.955C12.8373 134.423 0 121.156 0 104.971V37.0286Z" fill="#F1FDFF"/>
<path d="M0 37.0286C0 20.8443 12.8374 7.57737 29.0129 7.04484L212.013 1.02015C228.959 0.46225 243 14.0485 243 31.0039V110.996C243 127.952 228.959 141.538 212.013 140.98L29.0129 134.955C12.8373 134.423 0 121.156 0 104.971V37.0286Z" fill="url(#paint0_linear_3622_92)"/>
<path d="M0 37.0286C0 20.8443 12.8374 7.57737 29.0129 7.04484L212.013 1.02015C228.959 0.46225 243 14.0485 243 31.0039V110.996C243 127.952 228.959 141.538 212.013 140.98L29.0129 134.955C12.8373 134.423 0 121.156 0 104.971V37.0286Z" fill="url(#paint1_linear_3622_92)"/>
<path d="M36.2418 59H40.3218L44.6178 48.08L48.9138 59H52.9938L59.4018 42.2H55.0338L50.9058 53.096L46.6578 42.2H42.5778L38.3298 53.096L34.2018 42.2H29.8338L36.2418 59ZM58.8109 52.928C58.8109 56.384 61.1149 59.288 65.4349 59.288C67.7869 59.288 69.2029 58.712 70.2109 58.04L68.7229 54.824C67.8829 55.376 66.8029 55.688 65.5549 55.688C64.5709 55.688 63.3229 55.328 62.7709 54.224L62.7469 54.176H71.1229V53.144C71.1229 49.088 68.6989 46.712 65.0989 46.712C61.2349 46.712 58.8109 49.376 58.8109 52.928ZM66.9469 51.488H62.6509C62.9869 50.336 63.8509 49.88 64.9069 49.88C66.0829 49.88 66.8269 50.6 66.9469 51.488ZM76.7744 42.2H72.9344V59H76.7744V42.2ZM83.0088 42.2H79.1688V59H83.0088V42.2ZM95.9697 42.2H92.1297V59H95.9697V53.168C95.9697 51.44 96.7377 50.432 98.0577 50.432C99.2817 50.432 99.8817 51.152 99.8817 52.64V59H103.77V51.32C103.77 48.344 102.33 46.712 99.7137 46.712C98.1057 46.712 96.8337 47.408 95.9697 48.8V42.2ZM105.686 52.928C105.686 56.384 107.99 59.288 112.31 59.288C114.662 59.288 116.078 58.712 117.086 58.04L115.598 54.824C114.758 55.376 113.678 55.688 112.43 55.688C111.446 55.688 110.198 55.328 109.646 54.224L109.622 54.176H117.998V53.144C117.998 49.088 115.574 46.712 111.974 46.712C108.11 46.712 105.686 49.376 105.686 52.928ZM113.822 51.488H109.526C109.862 50.336 110.726 49.88 111.782 49.88C112.958 49.88 113.702 50.6 113.822 51.488ZM123.649 42.2H119.809V59H123.649V42.2ZM129.884 42.2H126.044V59H129.884V42.2ZM131.678 53C131.678 56.84 134.486 59.288 138.23 59.288C141.974 59.288 144.782 56.84 144.782 53C144.782 49.16 141.974 46.712 138.23 46.712C134.486 46.712 131.678 49.16 131.678 53ZM140.846 53C140.846 54.584 139.622 55.52 138.23 55.52C136.838 55.52 135.614 54.584 135.614 53C135.614 51.416 136.838 50.48 138.23 50.48C139.622 50.48 140.846 51.416 140.846 53ZM160.982 58.712V55.016C159.998 55.16 159.638 55.208 159.35 55.208C158.654 55.208 158.246 55.016 158.246 54.344V50.168H161.15V47H158.246V43.784H154.406V47H152.342V50.168H154.406V55.136C154.406 57.992 155.798 59.12 158.078 59.12C158.87 59.12 159.95 58.976 160.982 58.712ZM167.032 42.2H163.192V59H167.032V53.168C167.032 51.44 167.8 50.432 169.12 50.432C170.344 50.432 170.944 51.152 170.944 52.64V59H174.832V51.32C174.832 48.344 173.392 46.712 170.776 46.712C169.168 46.712 167.896 47.408 167.032 48.8V42.2ZM176.748 52.928C176.748 56.384 179.052 59.288 183.372 59.288C185.724 59.288 187.14 58.712 188.148 58.04L186.66 54.824C185.82 55.376 184.74 55.688 183.492 55.688C182.508 55.688 181.26 55.328 180.708 54.224L180.684 54.176H189.06V53.144C189.06 49.088 186.636 46.712 183.036 46.712C179.172 46.712 176.748 49.376 176.748 52.928ZM184.884 51.488H180.588C180.924 50.336 181.788 49.88 182.844 49.88C184.02 49.88 184.764 50.6 184.884 51.488ZM194.568 49.088V47H190.872V59H194.712V53.696C194.712 51.608 195.72 50.816 197.448 50.816C197.976 50.816 198.576 50.888 199.008 51.056V46.904C198.648 46.784 198.312 46.712 197.856 46.712C196.176 46.712 195.168 47.648 194.568 49.088ZM199.483 52.928C199.483 56.384 201.787 59.288 206.107 59.288C208.459 59.288 209.875 58.712 210.883 58.04L209.395 54.824C208.555 55.376 207.475 55.688 206.227 55.688C205.243 55.688 203.995 55.328 203.443 54.224L203.419 54.176H211.795V53.144C211.795 49.088 209.371 46.712 205.771 46.712C201.907 46.712 199.483 49.376 199.483 52.928ZM207.619 51.488H203.323C203.659 50.336 204.523 49.88 205.579 49.88C206.755 49.88 207.499 50.6 207.619 51.488ZM60.5359 89H64.3759V83.168C64.3759 81.44 65.1439 80.432 66.4639 80.432C67.6879 80.432 68.2879 81.152 68.2879 82.64V89H72.1759V81.32C72.1759 78.344 70.7359 76.712 68.1199 76.712C66.5839 76.712 65.2159 77.456 64.2799 78.8V77H60.5359V89ZM74.0922 82.928C74.0922 86.384 76.3962 89.288 80.7162 89.288C83.0682 89.288 84.4842 88.712 85.4922 88.04L84.0042 84.824C83.1642 85.376 82.0842 85.688 80.8362 85.688C79.8522 85.688 78.6042 85.328 78.0522 84.224L78.0282 84.176H86.4042V83.144C86.4042 79.088 83.9802 76.712 80.3802 76.712C76.5162 76.712 74.0922 79.376 74.0922 82.928ZM82.2282 81.488H77.9322C78.2682 80.336 79.1322 79.88 80.1882 79.88C81.3642 79.88 82.1082 80.6 82.2282 81.488ZM91.1309 89H94.0349L96.6509 82.76L99.2669 89H102.171L106.995 77H102.891L100.659 83.12L98.2589 77H95.0429L92.6429 83.12L90.4109 77H86.3069L91.1309 89ZM120.221 80.168H123.581V77H120.221V76.976C120.221 76.088 120.557 75.488 121.733 75.488C122.309 75.488 122.837 75.56 123.677 75.704V72.152C122.789 72.032 122.045 71.912 121.013 71.912C118.445 71.912 116.381 73.4 116.381 76.448V77H113.837V80.168H116.381V89H120.221V80.168ZM128.943 79.088V77H125.247V89H129.087V83.696C129.087 81.608 130.095 80.816 131.823 80.816C132.351 80.816 132.951 80.888 133.383 81.056V76.904C133.023 76.784 132.687 76.712 132.231 76.712C130.551 76.712 129.543 77.648 128.943 79.088ZM136.852 75.824C138.148 75.824 139.108 74.864 139.108 73.568C139.108 72.272 138.148 71.312 136.852 71.312C135.556 71.312 134.596 72.272 134.596 73.568C134.596 74.864 135.556 75.824 136.852 75.824ZM138.772 77H134.932V89H138.772V77ZM140.819 82.928C140.819 86.384 143.123 89.288 147.443 89.288C149.795 89.288 151.211 88.712 152.219 88.04L150.731 84.824C149.891 85.376 148.811 85.688 147.563 85.688C146.579 85.688 145.331 85.328 144.779 84.224L144.755 84.176H153.131V83.144C153.131 79.088 150.707 76.712 147.107 76.712C143.243 76.712 140.819 79.376 140.819 82.928ZM148.955 81.488H144.659C144.995 80.336 145.859 79.88 146.915 79.88C148.091 79.88 148.835 80.6 148.955 81.488ZM154.942 89H158.782V83.168C158.782 81.44 159.55 80.432 160.87 80.432C162.094 80.432 162.694 81.152 162.694 82.64V89H166.582V81.32C166.582 78.344 165.142 76.712 162.526 76.712C160.99 76.712 159.622 77.456 158.686 78.8V77H154.942V89ZM181.458 72.2H177.618V78.704C176.802 77.456 175.338 76.688 173.682 76.688C170.61 76.688 168.498 79.256 168.498 83C168.498 86.768 170.634 89.312 173.754 89.312C175.362 89.312 176.73 88.616 177.618 87.368V89H181.458V72.2ZM175.05 80.48C176.562 80.48 177.666 81.536 177.666 83C177.666 84.464 176.562 85.52 175.05 85.52C173.538 85.52 172.434 84.464 172.434 83C172.434 81.536 173.538 80.48 175.05 80.48Z" fill="#16445E"/>
<defs>
<linearGradient id="paint0_linear_3622_92" x1="121.5" y1="0" x2="118" y2="57" gradientUnits="userSpaceOnUse">
<stop stop-color="white"/>
<stop offset="1" stop-color="white" stop-opacity="0"/>
</linearGradient>
<linearGradient id="paint1_linear_3622_92" x1="111.5" y1="135" x2="114.5" y2="90.5" gradientUnits="userSpaceOnUse">
<stop stop-color="#E4FBFF"/>
<stop offset="1" stop-color="#E4FBFF" stop-opacity="0"/>
</linearGradient>
</defs>
</svg>
