<svg width="230" height="143" viewBox="0 0 260 183" fill="none" xmlns="http://www.w3.org/2000/svg">
<circle cx="240.5" cy="153.5" r="12.5" fill="#F1FDFF"/>
<circle cx="252.5" cy="175.5" r="7.5" fill="#F1FDFF"/>
<path d="M0 37.0286C0 20.8443 12.8374 7.57737 29.0129 7.04484L212.013 1.02015C228.959 0.46225 243 14.0485 243 31.0039V110.996C243 127.952 228.959 141.538 212.013 140.98L29.0129 134.955C12.8373 134.423 0 121.156 0 104.971V37.0286Z" fill="#F1FDFF"/>
<path d="M0 37.0286C0 20.8443 12.8374 7.57737 29.0129 7.04484L212.013 1.02015C228.959 0.46225 243 14.0485 243 31.0039V110.996C243 127.952 228.959 141.538 212.013 140.98L29.0129 134.955C12.8373 134.423 0 121.156 0 104.971V37.0286Z" fill="url(#paint0_linear_99_5147)"/>
<path d="M0 37.0286C0 20.8443 12.8374 7.57737 29.0129 7.04484L212.013 1.02015C228.959 0.46225 243 14.0485 243 31.0039V110.996C243 127.952 228.959 141.538 212.013 140.98L29.0129 134.955C12.8373 134.423 0 121.156 0 104.971V37.0286Z" fill="url(#paint1_linear_99_5147)"/>
<path d="M53.7964 65H57.8764L62.1724 54.08L66.4684 65H70.5484L76.9564 48.2H72.5884L68.4604 59.096L64.2124 48.2H60.1324L55.8844 59.096L51.7564 48.2H47.3884L53.7964 65ZM82.2353 48.2H78.3953V65H82.2353V59.168C82.2353 57.44 83.0033 56.432 84.3233 56.432C85.5473 56.432 86.1473 57.152 86.1473 58.64V65H90.0353V57.32C90.0353 54.344 88.5953 52.712 85.9793 52.712C84.3713 52.712 83.0993 53.408 82.2353 54.8V48.2ZM92.0476 55.28L94.7356 57.392C95.1916 56.648 96.2716 56.216 97.6636 56.216C98.7916 56.216 99.4156 56.48 99.4156 56.96V57.056C99.4156 57.272 99.2476 57.392 98.8876 57.44L95.6476 57.728C93.3436 57.92 91.8316 59.432 91.8316 61.52C91.8316 63.704 93.5116 65.264 95.8636 65.264C97.3996 65.264 98.6716 64.592 99.4156 63.44V65.024H103.256V57.872C103.256 54.392 101.48 52.736 97.7356 52.736C94.9756 52.736 92.9356 53.648 92.0476 55.28ZM99.4156 59.936V60.152C99.4156 61.376 98.4796 62.24 97.1596 62.24C96.2956 62.24 95.7916 61.88 95.7916 61.232C95.7916 60.68 96.2236 60.32 96.9916 60.224L99.4156 59.936ZM113.45 64.712V61.016C112.466 61.16 112.106 61.208 111.818 61.208C111.122 61.208 110.714 61.016 110.714 60.344V56.168H113.618V53H110.714V49.784H106.874V53H104.81V56.168H106.874V61.136C106.874 63.992 108.266 65.12 110.546 65.12C111.338 65.12 112.418 64.976 113.45 64.712ZM117.317 56.552L120.221 52.136C120.629 51.488 120.821 50.96 120.821 50.432C120.821 49.04 119.717 47.912 118.325 47.912C116.933 47.912 115.829 49.04 115.829 50.432C115.829 51.392 116.357 52.256 117.173 52.688L115.421 55.472L117.317 56.552ZM121.094 56.696C121.094 59.288 123.11 60.224 124.766 60.584C127.022 61.064 127.406 61.136 127.406 61.448C127.406 61.856 126.83 61.904 126.35 61.904C124.55 61.904 123.302 61.256 122.462 60.584L120.542 63.8C121.646 64.76 123.542 65.288 125.87 65.288C129.398 65.288 131.414 64.088 131.414 61.28C131.414 58.904 129.998 57.872 127.862 57.416C125.414 56.888 125.102 56.84 125.102 56.552C125.102 56.288 125.366 56.12 126.134 56.12C127.19 56.12 128.678 56.456 129.47 57.032L131.294 53.984C130.142 53.24 128.582 52.712 126.494 52.712C123.134 52.712 121.094 54.08 121.094 56.696ZM140.356 69.8H144.388L151.828 53H147.772L145.252 58.712L142.66 53H138.268L143.26 63.2L140.356 69.8ZM151.717 59C151.717 62.84 154.525 65.288 158.269 65.288C162.013 65.288 164.821 62.84 164.821 59C164.821 55.16 162.013 52.712 158.269 52.712C154.525 52.712 151.717 55.16 151.717 59ZM160.885 59C160.885 60.584 159.661 61.52 158.269 61.52C156.877 61.52 155.653 60.584 155.653 59C155.653 57.416 156.877 56.48 158.269 56.48C159.661 56.48 160.885 57.416 160.885 59ZM178.086 53H174.222V58.832C174.222 60.632 173.334 61.568 172.134 61.568C171.222 61.568 170.55 61.016 170.55 59.432V53H166.614V60.68C166.614 63.632 168.126 65.288 170.598 65.288C172.398 65.288 173.622 64.28 174.366 63.128V65H178.086V53ZM184.302 55.088V53H180.606V65H184.446V59.696C184.446 57.608 185.454 56.816 187.182 56.816C187.71 56.816 188.31 56.888 188.742 57.056V52.904C188.382 52.784 188.046 52.712 187.59 52.712C185.91 52.712 184.902 53.648 184.302 55.088ZM32.2238 84.872C31.5518 83.384 30.2558 82.712 28.6478 82.712C26.7038 82.712 25.6478 83.672 24.9518 84.8V83H21.2078V95H25.0478V89.168C25.0478 87.512 25.6718 86.432 27.1118 86.432C28.2878 86.432 28.9118 87.176 28.9118 88.688V95H32.7518V89.168C32.7518 87.512 33.3758 86.432 34.8158 86.432C35.9918 86.432 36.6158 87.176 36.6158 88.688V95H40.4558V87.464C40.4558 84.416 38.4878 82.712 36.0158 82.712C34.1918 82.712 32.8238 83.648 32.2238 84.872ZM42.3813 89C42.3813 92.84 45.1893 95.288 48.9333 95.288C52.6773 95.288 55.4853 92.84 55.4853 89C55.4853 85.16 52.6773 82.712 48.9333 82.712C45.1893 82.712 42.3813 85.16 42.3813 89ZM51.5493 89C51.5493 90.584 50.3253 91.52 48.9333 91.52C47.5413 91.52 46.3173 90.584 46.3173 89C46.3173 87.416 47.5413 86.48 48.9333 86.48C50.3253 86.48 51.5493 87.416 51.5493 89ZM60.9741 85.088V83H57.2781V95H61.1181V89.696C61.1181 87.608 62.1261 86.816 63.8541 86.816C64.3821 86.816 64.9821 86.888 65.4141 87.056V82.904C65.0541 82.784 64.7181 82.712 64.2621 82.712C62.5821 82.712 61.5741 83.648 60.9741 85.088ZM66.7234 95H70.5634V89.168C70.5634 87.44 71.3314 86.432 72.6514 86.432C73.8754 86.432 74.4754 87.152 74.4754 88.64V95H78.3634V87.32C78.3634 84.344 76.9234 82.712 74.3074 82.712C72.7714 82.712 71.4034 83.456 70.4674 84.8V83H66.7234V95ZM83.0397 81.824C84.3357 81.824 85.2957 80.864 85.2957 79.568C85.2957 78.272 84.3357 77.312 83.0397 77.312C81.7437 77.312 80.7837 78.272 80.7837 79.568C80.7837 80.864 81.7437 81.824 83.0397 81.824ZM84.9597 83H81.1197V95H84.9597V83ZM87.6063 95H91.4463V89.168C91.4463 87.44 92.2143 86.432 93.5343 86.432C94.7583 86.432 95.3583 87.152 95.3583 88.64V95H99.2463V87.32C99.2463 84.344 97.8063 82.712 95.1903 82.712C93.6543 82.712 92.2863 83.456 91.3503 84.8V83H87.6063V95ZM101.163 88.928C101.163 92.6 103.347 95 106.659 95C108.219 95 109.515 94.376 110.331 93.224V93.848C110.331 95.576 109.179 96.44 106.875 96.44C105.723 96.44 104.619 96.128 103.467 95.456L101.931 98.888C103.491 99.728 105.171 100.112 107.163 100.112C111.675 100.112 114.122 98 114.122 94.112V83H110.283V84.704C109.539 83.48 108.099 82.712 106.539 82.712C103.371 82.712 101.163 85.256 101.163 88.928ZM110.331 89C110.331 90.464 109.227 91.52 107.715 91.52C106.203 91.52 105.099 90.464 105.099 89C105.099 87.536 106.203 86.48 107.715 86.48C109.227 86.48 110.331 87.536 110.331 89ZM127.068 85.088V83H123.372V95H127.212V89.696C127.212 87.608 128.22 86.816 129.948 86.816C130.476 86.816 131.076 86.888 131.508 87.056V82.904C131.148 82.784 130.812 82.712 130.356 82.712C128.676 82.712 127.668 83.648 127.068 85.088ZM131.983 89C131.983 92.84 134.791 95.288 138.535 95.288C142.279 95.288 145.087 92.84 145.087 89C145.087 85.16 142.279 82.712 138.535 82.712C134.791 82.712 131.983 85.16 131.983 89ZM141.151 89C141.151 90.584 139.927 91.52 138.535 91.52C137.143 91.52 135.919 90.584 135.919 89C135.919 87.416 137.143 86.48 138.535 86.48C139.927 86.48 141.151 87.416 141.151 89ZM158.352 83H154.488V88.832C154.488 90.632 153.6 91.568 152.4 91.568C151.488 91.568 150.816 91.016 150.816 89.432V83H146.88V90.68C146.88 93.632 148.392 95.288 150.864 95.288C152.664 95.288 153.888 94.28 154.632 93.128V95H158.352V83ZM168.552 94.712V91.016C167.568 91.16 167.208 91.208 166.92 91.208C166.224 91.208 165.816 91.016 165.816 90.344V86.168H168.72V83H165.816V79.784H161.976V83H159.912V86.168H161.976V91.136C161.976 93.992 163.368 95.12 165.648 95.12C166.44 95.12 167.52 94.976 168.552 94.712ZM172.923 81.824C174.219 81.824 175.179 80.864 175.179 79.568C175.179 78.272 174.219 77.312 172.923 77.312C171.627 77.312 170.667 78.272 170.667 79.568C170.667 80.864 171.627 81.824 172.923 81.824ZM174.843 83H171.003V95H174.843V83ZM177.489 95H181.329V89.168C181.329 87.44 182.097 86.432 183.417 86.432C184.641 86.432 185.241 87.152 185.241 88.64V95H189.129V87.32C189.129 84.344 187.689 82.712 185.073 82.712C183.537 82.712 182.169 83.456 181.233 84.8V83H177.489V95ZM191.045 88.928C191.045 92.384 193.349 95.288 197.669 95.288C200.021 95.288 201.437 94.712 202.445 94.04L200.957 90.824C200.117 91.376 199.037 91.688 197.789 91.688C196.805 91.688 195.557 91.328 195.005 90.224L194.981 90.176H203.357V89.144C203.357 85.088 200.933 82.712 197.333 82.712C193.469 82.712 191.045 85.376 191.045 88.928ZM199.181 87.488H194.885C195.221 86.336 196.085 85.88 197.141 85.88C198.317 85.88 199.061 86.6 199.181 87.488ZM206.842 88.976H210.922V88.88C210.922 87.68 211.93 87.176 212.89 86.384C213.754 85.688 214.546 84.776 214.546 82.952C214.546 80.264 212.746 78.2 209.482 78.2C206.29 78.2 204.202 79.88 204.202 83.528H208.162C208.162 82.688 208.546 82.28 209.386 82.28C210.154 82.28 210.442 82.712 210.442 83.216C210.442 83.696 209.866 84.128 209.17 84.632C208.138 85.376 206.842 86.312 206.842 87.848V88.976ZM209.05 89.96C207.61 89.96 206.53 91.04 206.53 92.48C206.53 93.92 207.61 95 209.05 95C210.49 95 211.57 93.92 211.57 92.48C211.57 91.04 210.49 89.96 209.05 89.96Z" fill="#16445E"/>
<defs>
<linearGradient id="paint0_linear_99_5147" x1="121.5" y1="0" x2="118" y2="57" gradientUnits="userSpaceOnUse">
<stop stop-color="white"/>
<stop offset="1" stop-color="white" stop-opacity="0"/>
</linearGradient>
<linearGradient id="paint1_linear_99_5147" x1="111.5" y1="135" x2="114.5" y2="90.5" gradientUnits="userSpaceOnUse">
<stop stop-color="#E4FBFF"/>
<stop offset="1" stop-color="#E4FBFF" stop-opacity="0"/>
</linearGradient>
</defs>
</svg>
