<svg width="72" height="24" viewBox="0 0 72 24" fill="none" xmlns="http://www.w3.org/2000/svg">
<path d="M0 23.6155H5.44726L6.50467 15.1242H15.9573L16.5981 9.6769H7.14553L7.53004 6.63284H16.9826L17.6555 1.18558H2.75567L0 23.6155Z" fill="#16445E"/>
<path d="M17.6693 15.5087C17.0925 20.1228 19.72 24 25.4877 24C28.6279 24 30.5825 23.231 32.0565 22.3338L30.5825 18.0401C29.3969 18.777 27.8909 19.1936 26.2247 19.1936C24.911 19.1936 23.3088 18.7129 22.7321 17.239V17.1749H33.915L34.0752 15.7971C34.7481 10.3818 31.8963 7.20961 27.0899 7.20961C21.931 7.20961 18.2461 10.7664 17.6693 15.5087ZM28.7561 13.5861H23.0204C23.6613 12.0481 24.911 11.4393 26.3208 11.4393C27.8909 11.4393 28.7561 12.4005 28.7561 13.5861Z" fill="#16445E"/>
<path d="M43.4149 1.18558H38.288L35.5324 23.6155H40.6592L43.4149 1.18558Z" fill="#16445E"/>
<path d="M48.8867 6.02403C50.617 6.02403 52.0589 4.74232 52.2832 3.01202C52.5075 1.28171 51.354 0 49.6237 0C47.8934 0 46.4835 1.28171 46.2592 3.01202C46.0349 4.74232 47.1564 6.02403 48.8867 6.02403ZM51.2578 7.59413H46.131L44.1764 23.6155H49.3032L51.2578 7.59413Z" fill="#16445E"/>
<path d="M60.8549 19.4179L63.4824 23.6155H69.6025L64.4437 15.3164L71.1406 7.59413H65.0204L61.8482 11.247L59.5732 7.59413H53.453L58.3235 15.3164L51.0819 23.6155H57.202L60.8549 19.4179Z" fill="#16445E"/>
</svg>
